HIERARCHY
ROOT hip
{
  OFFSET 0 0 0
  CHANNELS 6 Xposition Yposition Zposition Zrotation Yrotation Xrotation
  JOINT abdomen
  {
    OFFSET 0 20.6881 -0.73152
    CHANNELS 3 Zrotation Xrotation Yrotation
    JOINT chest
    {
      OFFSET 0 11.7043 -0.48768
      CHANNELS 3 Zrotation Xrotation Yrotation
      JOINT neck
      {
        OFFSET 0 22.1894 -2.19456
        CHANNELS 3 Zrotation Xrotation Yrotation
        JOINT head
        {
          OFFSET -0.24384 7.07133 1.2192
          CHANNELS 3 Zrotation Xrotation Yrotation
          JOINT leftEye
          {
            OFFSET 4.14528 8.04674 8.04672
            CHANNELS 3 Zrotation Xrotation Yrotation
            End Site
            {
              OFFSET 1 0 0
            }
          }
          JOINT rightEye
          {
            OFFSET -3.6576 8.04674 8.04672
            CHANNELS 3 Zrotation Xrotation Yrotation
            End Site
            {
              OFFSET 1 0 0
            }
          }
        }
      }
      JOINT rCollar
      {
        OFFSET -2.68224 19.2634 -4.8768
        CHANNELS 3 Zrotation Xrotation Yrotation
        JOINT rShldr
        {
          OFFSET -8.77824 -1.95073 1.46304
          CHANNELS 3 Zrotation Xrotation Yrotation
          JOINT rForeArm
          {
            OFFSET -28.1742 -1.7115 0.48768
            CHANNELS 3 Zrotation Xrotation Yrotation
            JOINT rHand
            {
              OFFSET -22.5879 0.773209 7.07136
              CHANNELS 3 Zrotation Xrotation Yrotation
              JOINT rThumb1
              {
                OFFSET -1.2192 -0.487915 3.41376
                CHANNELS 3 Zrotation Xrotation Yrotation
                JOINT rThumb2
                {
                  OFFSET -3.37035 -0.52449 3.41376
                  CHANNELS 3 Zrotation Xrotation Yrotation
                  End Site
                  {
                    OFFSET -1.78271 -1.18214 1.43049
                  }
                }
              }
              JOINT rIndex1
              {
                OFFSET -7.75947 0.938293 5.60832
                CHANNELS 3 Zrotation Xrotation Yrotation
                JOINT rIndex2
                {
                  OFFSET -2.54057 -0.884171 1.56538
                  CHANNELS 3 Zrotation Xrotation Yrotation
                  End Site
                  {
                    OFFSET -1.62519 -0.234802 1.16502
                  }
                }
              }
              JOINT rMid1
              {
                OFFSET -8.24714 1.18213 3.41376
                CHANNELS 3 Zrotation Xrotation Yrotation
                JOINT rMid2
                {
                  OFFSET -3.10165 -0.590103 1.0647
                  CHANNELS 3 Zrotation Xrotation Yrotation
                  End Site
                  {
                    OFFSET -2.48547 -0.328903 0.83742
                  }
                }
              }
              JOINT rRing1
              {
                OFFSET -8.82822 0.546677 1.51678
                CHANNELS 3 Zrotation Xrotation Yrotation
                JOINT rRing2
                {
                  OFFSET -2.60934 -0.819778 -0.0198488
                  CHANNELS 3 Zrotation Xrotation Yrotation
                  End Site
                  {
                    OFFSET -2.33842 -0.294052 0.168128
                  }
                }
              }
              JOINT rPinky1
              {
                OFFSET -8.27202 -0.0477905 -0.4584
                CHANNELS 3 Zrotation Xrotation Yrotation
                JOINT rPinky2
                {
                  OFFSET -1.82734 -0.647385 -0.700984
                  CHANNELS 3 Zrotation Xrotation Yrotation
                  End Site
                  {
                    OFFSET -1.69225 -0.51767 -0.607171
                  }
                }
              }
            }
          }
        }
      }
      JOINT lCollar
      {
        OFFSET 2.68224 19.2634 -4.8768
        CHANNELS 3 Zrotation Xrotation Yrotation
        JOINT lShldr
        {
          OFFSET 8.77824 -1.95073 1.46304
          CHANNELS 3 Zrotation Xrotation Yrotation
          JOINT lForeArm
          {
            OFFSET 28.1742 -1.7115 0.48768
            CHANNELS 3 Zrotation Xrotation Yrotation
            JOINT lHand
            {
              OFFSET 22.5879 0.773209 7.07136
              CHANNELS 3 Zrotation Xrotation Yrotation
              JOINT lThumb1
              {
                OFFSET 1.2192 -0.487915 3.41376
                CHANNELS 3 Zrotation Xrotation Yrotation
                JOINT lThumb2
                {
                  OFFSET 3.37035 -0.52449 3.41376
                  CHANNELS 3 Zrotation Xrotation Yrotation
                  End Site
                  {
                    OFFSET 1.78271 -1.18214 1.43049
                  }
                }
              }
              JOINT lIndex1
              {
                OFFSET 7.75947 0.938293 5.60832
                CHANNELS 3 Zrotation Xrotation Yrotation
                JOINT lIndex2
                {
                  OFFSET 2.54057 -0.884171 1.56538
                  CHANNELS 3 Zrotation Xrotation Yrotation
                  End Site
                  {
                    OFFSET 1.62519 -0.234802 1.16502
                  }
                }
              }
              JOINT lMid1
              {
                OFFSET 8.24714 1.18213 3.41376
                CHANNELS 3 Zrotation Xrotation Yrotation
                JOINT lMid2
                {
                  OFFSET 3.10165 -0.590103 1.0647
                  CHANNELS 3 Zrotation Xrotation Yrotation
                  End Site
                  {
                    OFFSET 2.48547 -0.328903 0.83742
                  }
                }
              }
              JOINT lRing1
              {
                OFFSET 8.82822 0.546677 1.51678
                CHANNELS 3 Zrotation Xrotation Yrotation
                JOINT lRing2
                {
                  OFFSET 2.60934 -0.819778 -0.0198488
                  CHANNELS 3 Zrotation Xrotation Yrotation
                  End Site
                  {
                    OFFSET 2.33842 -0.294052 0.168128
                  }
                }
              }
              JOINT lPinky1
              {
                OFFSET 8.27202 -0.0477905 -0.4584
                CHANNELS 3 Zrotation Xrotation Yrotation
                JOINT lPinky2
                {
                  OFFSET 1.82734 -0.647385 -0.700984
                  CHANNELS 3 Zrotation Xrotation Yrotation
                  End Site
                  {
                    OFFSET 1.69225 -0.51767 -0.607171
                  }
                }
              }
            }
          }
        }
      }
    }
  }
  JOINT rButtock
  {
    OFFSET -8.77824 4.35084 1.2192
    CHANNELS 3 Zrotation Xrotation Yrotation
    JOINT rThigh
    {
      OFFSET 0 -1.70687 -2.19456
      CHANNELS 3 Zrotation Xrotation Yrotation
      JOINT rShin
      {
        OFFSET 0 -36.8199 0.73152
        CHANNELS 3 Zrotation Xrotation Yrotation
        JOINT rFoot
        {
          OFFSET 0.73152 -45.1104 -5.12064
          CHANNELS 3 Zrotation Xrotation Yrotation
          End Site
          {
            OFFSET -1.1221 -3.69964 12.103
          }
        }
      }
    }
  }
  JOINT lButtock
  {
    OFFSET 8.77824 4.35084 1.2192
    CHANNELS 3 Zrotation Xrotation Yrotation
    JOINT lThigh
    {
      OFFSET 0 -1.70687 -2.19456
      CHANNELS 3 Zrotation Xrotation Yrotation
      JOINT lShin
      {
        OFFSET 0 -36.8199 0.73152
        CHANNELS 3 Zrotation Xrotation Yrotation
        JOINT lFoot
        {
          OFFSET -0.73152 -45.1104 -5.12064
          CHANNELS 3 Zrotation Xrotation Yrotation
          End Site
          {
            OFFSET 1.1221 -3.69964 12.103
          }
        }
      }
    }
  }
}
MOTION
Frames:	7
Frame Time:	0.00833333
-2.52848 83.628 -54.4197 5.026 6.7343 0.2613 0.250971 -9.53785 4.43048 1.60141 -1.32667 1.36396 -4.65382 -0.640083 -2.68237 8.20483 -46.2785 -0.553081 -0.0 0.0 0.0 -0.0 0.0 0.0 -2.66912e-13 5.99135e-14 -8.26595e-14 -4.24025 -33.3855 -18.927 -11.9078 -5.37901 21.4409 -0.297709 15.1979 2.18919 -3.1433e-09 5.60493e-11 -8.71543e-10 -5.44027e-09 1.04522e-10 -1.46888e-09 -3.1433e-09 5.60457e-11 -8.71554e-10 7.73091 5.47488 0.417314 -3.1433e-09 5.60435e-11 -8.7154e-10 2.90554 0.965183 0.102902 -3.14329e-09 5.60451e-11 -8.71544e-10 10.2786 0.731801 0.0259123 -3.14331e-09 5.60445e-11 -8.71535e-10 2.22167 -0.733487 -0.20892 -2.66992e-13 5.99158e-14 -8.28986e-14 -1.87545 -10.65 8.65596 15.4512 -8.18292 -28.5311 0.344088 -16.4517 2.37858 -3.49361e-09 3.5275e-10 1.12194e-09 -6.04761e-09 6.08999e-10 1.90128e-09 -3.49362e-09 3.52749e-10 1.12195e-09 -7.73091 5.47488 -0.417314 -3.49361e-09 3.52749e-10 1.12193e-09 -2.90554 0.965183 -0.102902 -3.49362e-09 3.52749e-10 1.12193e-09 -10.2786 0.731801 -0.0259123 -3.49361e-09 3.52753e-10 1.12193e-09 -2.22167 -0.733487 0.20892 -2.03217e-16 0.0 -3.88251e-19 -4.96723 -8.14152 6.27286 -0.121693 31.4425 0.849174 -14.6897 -17.3456 -33.4441 2.03217e-16 0.0 3.88251e-19 10.4985 -8.62258 6.23628 0.206315 31.5053 -0.487698 -0.509772 -12.2544 -3.21906
-2.42929 83.5163 -54.8467 4.5708 6.3841 0.1505 1.0553 -9.12353 4.67247 1.81882 -1.33534 1.41104 -4.32703 -1.17981 -2.46712 7.22842 -46.2522 -0.581883 -0.0 0.0 0.0 -0.0 0.0 0.0 -2.75892e-13 7.47407e-14 -9.69075e-14 -4.94723 -32.9153 -18.1118 -12.1256 -5.53702 21.853 -0.251907 14.1463 2.02997 -3.34396e-09 1.37448e-10 -9.32895e-10 -5.78768e-09 2.4648e-10 -1.57048e-09 -3.34395e-09 1.37444e-10 -9.32908e-10 7.73091 5.47488 0.417314 -3.34396e-09 1.37442e-10 -9.32895e-10 2.90554 0.965183 0.102902 -3.34395e-09 1.37444e-10 -9.32897e-10 10.2786 0.731801 0.0259123 -3.34397e-09 1.37443e-10 -9.32889e-10 2.22167 -0.733487 -0.20892 -2.75952e-13 7.4745e-14 -9.71063e-14 -2.95543 -10.4935 9.22847 15.3244 -8.07435 -28.2589 0.348737 -16.5631 2.39557 -3.59318e-09 3.87605e-10 1.00572e-09 -6.21735e-09 6.69701e-10 1.69837e-09 -3.59318e-09 3.87605e-10 1.00572e-09 -7.73091 5.47488 -0.417314 -3.59317e-09 3.87603e-10 1.00571e-09 -2.90554 0.965183 -0.102902 -3.59318e-09 3.87604e-10 1.00571e-09 -10.2786 0.731801 -0.0259123 -3.59317e-09 3.87609e-10 1.00571e-09 -2.22167 -0.733487 0.20892 -2.03217e-16 0.0 -3.88251e-19 -5.03841 -8.64076 5.68323 -0.12773 31.6636 0.842545 -14.2088 -17.2048 -32.5996 2.03217e-16 0.0 3.88251e-19 9.5906 -8.17413 5.88178 0.193061 30.7317 -0.493596 0.316193 -12.9005 -0.548502
-2.23572 83.4641 -55.313 4.1992 5.9167 0.1049 1.81672 -8.69188 4.80517 2.16543 -1.36113 1.43146 -3.77991 -1.58691 -2.01136 5.90971 -46.4783 -0.328864 -0.0 0.0 0.0 -0.0 0.0 0.0 -1.70594e-13 5.7646e-14 -6.95816e-14 -5.78585 -32.2349 -17.1205 -12.4676 -5.78702 22.5098 -0.182832 12.433 1.77348 -2.10796e-09 1.19808e-10 -7.21104e-10 -3.6505e-09 2.1413e-10 -1.21438e-09 -2.10796e-09 1.19807e-10 -7.2112e-10 7.73091 5.47488 0.417314 -2.10796e-09 1.19805e-10 -7.21106e-10 2.90554 0.965183 0.102902 -2.10796e-09 1.19808e-10 -7.21107e-10 10.2786 0.731801 0.0259123 -2.10797e-09 1.19806e-10 -7.21099e-10 2.22167 -0.733487 -0.20892 -1.70643e-13 5.76488e-14 -6.97789e-14 -4.12876 -10.4955 10.0257 15.0391 -7.83165 -27.6534 0.343409 -16.4405 2.37682 -2.03131e-09 1.99387e-10 3.56383e-10 -3.51068e-09 3.45564e-10 5.9169e-10 -2.03132e-09 1.99389e-10 3.56389e-10 -7.73091 5.47488 -0.417314 -2.03131e-09 1.99387e-10 3.56371e-10 -2.90554 0.965183 -0.102902 -2.03132e-09 1.99388e-10 3.56377e-10 -10.2786 0.731801 -0.0259123 -2.03131e-09 1.99393e-10 3.56371e-10 -2.22167 -0.733487 0.20892 -2.03217e-16 0.0 -3.88251e-19 -5.33075 -9.27669 5.13418 -0.134834 31.9531 0.838996 -13.7444 -17.0262 -31.7983 2.03217e-16 0.0 3.88251e-19 8.67709 -7.82285 5.75054 0.178413 29.8201 -0.502677 1.25977 -13.6149 2.33125
-1.94576 83.4462 -55.8639 4.0873 5.4936 0.1979 2.64676 -8.19959 4.90018 2.60977 -1.41059 1.44177 -3.03532 -1.95709 -1.34514 4.22146 -46.8517 0.148192 -0.0 0.0 0.0 -0.0 0.0 0.0 1.16618e-14 1.99782e-14 -1.3623e-14 -6.83588 -31.3408 -15.9613 -12.9084 -6.11104 23.3755 -0.113383 10.1881 1.44436 8.99034e-11 3.47252e-11 -3.10594e-10 1.50367e-10 6.31145e-11 -5.24316e-10 8.99043e-11 3.47278e-11 -3.10612e-10 7.73091 5.47488 0.417314 8.99045e-11 3.47265e-11 -3.10598e-10 2.90554 0.965183 0.102902 8.99115e-11 3.47293e-11 -3.10597e-10 10.2786 0.731801 0.0259123 8.9899e-11 3.47284e-11 -3.10588e-10 2.22167 -0.733487 -0.20892 1.16185e-14 1.99773e-14 -1.38404e-14 -5.453 -10.5676 11.0431 14.6247 -7.4808 -26.7963 0.333585 -16.2094 2.34155 6.53545e-10 -1.37999e-10 -6.45523e-10 1.14009e-09 -2.3589e-10 -1.11241e-09 6.53539e-10 -1.37996e-10 -6.45511e-10 -7.73091 5.47488 -0.417314 6.53549e-10 -1.37997e-10 -6.45534e-10 -2.90554 0.965183 -0.102902 6.53543e-10 -1.37996e-10 -6.45528e-10 -10.2786 0.731801 -0.0259123 6.53551e-10 -1.37991e-10 -6.45535e-10 -2.22167 -0.733487 0.20892 -2.03217e-16 0.0 -3.88251e-19 -5.82475 -10.0354 4.58095 -0.143043 32.3011 0.83649 -13.2435 -16.8021 -30.942 2.03217e-16 0.0 3.88251e-19 7.72615 -7.53073 5.77156 0.161875 28.7846 -0.51469 2.38684 -14.3365 5.55459
-1.60063 83.3824 -56.4656 4.2288 5.2963 0.339 3.36873 -7.6725 4.93626 3.06314 -1.50233 1.43997 -2.27554 -2.27093 -0.645383 2.4788 -47.3142 0.665491 -0.0 0.0 0.0 -0.0 0.0 0.0 1.97486e-13 -1.99256e-14 3.96552e-14 -7.93971 -30.3654 -14.9122 -13.3949 -6.47736 24.3442 -0.0672276 7.91363 1.1176 2.24889e-09 -2.92799e-11 9.47374e-11 3.88403e-09 -5.14774e-11 1.56252e-10 2.24888e-09 -2.92742e-11 9.47161e-11 7.73091 5.47488 0.417314 2.24889e-09 -2.92747e-11 9.47319e-11 2.90554 0.965183 0.102902 2.24889e-09 -2.92718e-11 9.47342e-11 10.2786 0.731801 0.0259123 2.24888e-09 -2.92723e-11 9.47439e-11 2.22167 -0.733487 -0.20892 1.97444e-13 -1.99308e-14 3.94145e-14 -6.74336 -10.7685 12.0751 14.1804 -7.10812 -25.9028 0.325775 -16.0221 2.31304 3.28398e-09 -4.72153e-10 -1.67381e-09 5.69706e-09 -8.12153e-10 -2.86268e-09 3.28397e-09 -4.72148e-10 -1.67379e-09 -7.73091 5.47488 -0.417314 3.28398e-09 -4.7215e-10 -1.67382e-09 -2.90554 0.965183 -0.102902 3.28398e-09 -4.72148e-10 -1.67381e-09 -10.2786 0.731801 -0.0259123 3.28398e-09 -4.72144e-10 -1.67382e-09 -2.22167 -0.733487 0.20892 -2.03217e-16 0.0 -3.88251e-19 -6.45684 -10.8415 4.08952 -0.151317 32.6859 0.837026 -12.8056 -16.6039 -30.1628 2.03217e-16 0.0 3.88251e-19 6.78149 -7.37143 5.88116 0.146023 27.7947 -0.52438 3.45382 -14.9026 8.4412
-1.20333 83.2899 -57.1012 4.5709 5.3862 0.5027 3.80705 -7.13634 4.89223 3.43679 -1.65497 1.42404 -1.6881 -2.5092 -0.0891855 0.987081 -47.8107 1.03215 -0.0 0.0 0.0 -0.0 0.0 0.0 3.1349e-13 -4.37282e-14 5.89397e-14 -8.90587 -29.4559 -14.2317 -13.8782 -6.85658 25.3093 -0.0460428 6.1124 0.862348 3.36822e-09 1.63131e-11 2.90989e-10 5.8196e-09 2.54413e-11 4.83878e-10 3.36822e-09 1.63198e-11 2.90967e-10 7.73091 5.47488 0.417314 3.36822e-09 1.63203e-11 2.90983e-10 2.90554 0.965183 0.102902 3.36823e-09 1.6323e-11 2.90986e-10 10.2786 0.731801 0.0259123 3.36822e-09 1.6323e-11 2.90995e-10 2.22167 -0.733487 -0.20892 3.13448e-13 -4.37371e-14 5.86912e-14 -7.81338 -11.1588 12.9167 13.8165 -6.80735 -25.1856 0.325942 -16.031 2.31434 4.68256e-09 -6.50675e-10 -2.4023e-09 8.12232e-09 -1.12072e-09 -4.10785e-09 4.68256e-09 -6.50669e-10 -2.40227e-09 -7.73091 5.47488 -0.417314 4.68257e-09 -6.5067e-10 -2.4023e-09 -2.90554 0.965183 -0.102902 4.68256e-09 -6.50668e-10 -2.4023e-09 -10.2786 0.731801 -0.0259123 4.68257e-09 -6.50665e-10 -2.4023e-09 -2.22167 -0.733487 0.20892 -2.03217e-16 0.0 -3.88251e-19 -7.15685 -11.6194 3.72666 -0.15869 33.0861 0.842642 -12.5237 -16.5084 -29.5905 2.03217e-16 0.0 3.88251e-19 5.88922 -7.41836 6.01596 0.133947 27.0201 -0.526635 4.15778 -15.1908 10.2956
-0.725018 83.242 -57.7679 5.218 5.7421 0.7201 3.80079 -6.55464 4.71819 3.72834 -1.89495 1.38443 -1.34443 -2.64694 0.278011 -0.193908 -48.4486 1.19081 -0.0 0.0 0.0 -0.0 0.0 0.0 3.21804e-13 -3.79927e-14 2.67862e-14 -9.6708 -28.5723 -14.0708 -14.4171 -7.30422 26.3781 -0.0344266 4.90196 0.691472 2.87956e-09 2.84455e-10 2.15622e-10 4.9742e-09 4.90376e-10 3.54929e-10 2.87956e-09 2.84459e-10 2.15602e-10 7.73091 5.47488 0.417314 2.87956e-09 2.84461e-10 2.15616e-10 2.90554 0.965183 0.102902 2.87956e-09 2.84463e-10 2.15619e-10 10.2786 0.731801 0.0259123 2.87955e-09 2.84463e-10 2.15627e-10 2.22167 -0.733487 -0.20892 3.21755e-13 -3.80052e-14 2.65533e-14 -8.6129 -11.9372 13.5369 13.5531 -6.59653 -24.6654 0.338639 -16.3441 2.3619 4.20911e-09 -5.7327e-10 -2.70013e-09 7.30864e-09 -9.89019e-10 -4.62881e-09 4.20911e-09 -5.73264e-10 -2.70011e-09 -7.73091 5.47488 -0.417314 4.20912e-09 -5.73264e-10 -2.70014e-09 -2.90554 0.965183 -0.102902 4.20911e-09 -5.73262e-10 -2.70013e-09 -10.2786 0.731801 -0.0259123 4.20912e-09 -5.7326e-10 -2.70014e-09 -2.22167 -0.733487 0.20892 -2.03217e-16 0.0 -3.88251e-19 -7.98764 -12.3971 3.5615 -0.165459 33.5487 0.857207 -12.4713 -16.5488 -29.3554 2.03217e-16 0.0 3.88251e-19 5.02161 -7.75664 6.19452 0.127374 26.5174 -0.517445 4.26795 -15.1382 10.6461
